<?xml version="1.0" encoding="utf-8"?>
<!-- Generator: Adobe Illustrator 18.1.0, SVG Export Plug-In . SVG Version: 6.00 Build 0)  -->
<svg version="1.1" id="Layer_1" xmlns="http://www.w3.org/2000/svg" xmlns:xlink="http://www.w3.org/1999/xlink" x="0px" y="0px"
	 viewBox="0 0 387.3 133.7" enable-background="new 0 0 387.3 133.7" xml:space="preserve">
<g>
	<g>
		<circle fill="#00A8CC" cx="67.3" cy="67.3" r="66.3"/>
		<g>
			<path fill="#FFFFFF" d="M67.3,108.6c-19.7,0-31.9-11.3-31.9-32.9V36.9h16.2v38.3c0,11.8,5.9,18.2,15.7,18.2s15.7-5.9,15.7-17.7
				V36.9h16.2v38.3C99.8,97.8,87,108.6,67.3,108.6z"/>
		</g>
	</g>
	<g>
		<polygon fill="#FFFFFF" points="215.8,14.3 151.9,14.3 151.9,28.5 176.9,28.5 176.9,66.9 176.9,118.5 190.7,118.5 190.7,65.9 
			190.7,28.5 215.8,28.5 		"/>
		<polygon fill="#FFFFFF" points="358.8,50.6 358.8,31 344.5,31 344.5,50.6 333.2,50.6 333.2,63.9 344.5,63.9 344.5,76.2 
			344.5,118.5 358.8,118.5 358.8,79.6 358.8,63.9 372.5,63.9 372.5,50.6 		"/>
		<path fill="#FFFFFF" d="M267.9,65.9c-1.5-2-2.9-4.4-4.9-5.9c-6.9-6.9-15.2-10.8-25.1-10.8s-18.2,3.4-25.1,10.3
			c-1.5,1.5-2.9,3.4-3.9,4.9c-3.9,5.9-5.9,12.3-5.9,19.7c0,10.3,3.4,18.7,10.3,25.6c6.9,6.9,15.2,10.3,25.1,10.3
			c13.3,0,23.6-4.9,31.5-15.2l-10.3-7.9c-5.4,6.9-12.3,9.8-20.2,9.8c-5.4,0-10.3-1.5-14.7-4.9c-4.4-2.9-7.4-8.4-8.4-15.2h57.5
			C273.3,79.1,271.3,71.8,267.9,65.9z M217.2,76.2c2.5-5.4,5.9-9.3,10.3-11.8c2.9-1.5,6.4-2.5,10.3-2.5c3.9,0,7.4,1,10.3,2.9
			c3.9,2.5,7.4,5.9,9.8,11.3H217.2z"/>
		<path fill="#FFFFFF" d="M304.7,77.2c-7.4-2.9-10.8-5.9-10.8-8.8l0,0c0-4.4,2.9-6.4,8.8-6.4c2.5,0,4.4,0.5,6.4,1.5
			c2,1,3.9,2.5,6.4,3.9l9.3-8.4c-7.9-6.4-15.2-9.8-21.6-9.8c-6.4,0-11.8,2-15.7,5.4c-3.9,3.4-5.9,7.4-6.4,12.8c0,0.5,0,1,0,1.5
			c0,4.4,1.5,8.4,4.4,11.3c2.9,2.9,8.4,5.9,16.2,9.3c7.9,2.9,11.8,6.4,11.8,10.3c0,2-1,3.9-3.4,5.4c-2,1.5-4.9,2.5-7.9,2.5
			c-4.4,0-8.4-2-12.3-5.9l-8.4,5.4c5.9,8.8,11.3,13.3,20.6,13.3c6.4,0,11.8-2,16.2-6.4c4.4-4.4,6.9-9.3,6.9-14.7
			c0-4.9-1.5-8.8-4.9-12.3C317.5,83.1,312.1,80.1,304.7,77.2z"/>
		<g>
			<path fill="#FFFFFF" d="M374.5,36.4c0-2,0.5-3.4,2-4.4c1.5-1.5,2.9-2,4.4-2c2,0,3.4,0.5,4.4,2c1.5,1.5,2,2.9,2,4.4
				c0,2-0.5,3.4-2,4.4c-1.5,1.5-2.9,2-4.4,2c-2,0-3.4-0.5-4.4-2C375,39.3,374.5,37.9,374.5,36.4z M386.3,36.4c0-1.5-0.5-2.9-1.5-3.9
				c-1-1-2.5-1.5-3.9-1.5c-1.5,0-2.9,0.5-3.9,1.5c-1,1-1.5,2.5-1.5,3.9c0,1.5,0.5,2.9,1.5,3.9c1,1,2.5,1.5,3.9,1.5
				c1.5,0,2.9-0.5,3.9-1.5C385.8,38.8,386.3,37.9,386.3,36.4z M378,39.8v-6.9h2.5c1,0,1.5,0,1.5,0c0.5,0,0.5,0.5,1,0.5
				c0.5,0.5,0.5,0.5,0.5,1c0,0.5,0,1-0.5,1.5c-0.5,0.5-1,0.5-1.5,0.5l0,0c0.5,0,1,0.5,1.5,2l1,1.5h-1.5l-0.5-1c-0.5-0.5-0.5-1-1-1.5
				c-0.5-0.5-0.5-0.5-1-0.5h-0.5v2.9H378z M379.4,35.9h1.5c0.5,0,1,0,1.5-0.5c0.5,0,0.5-0.5,0.5-1c0-0.5,0-0.5-0.5-1
				c-0.5,0-0.5,0-1.5,0h-1.5V35.9z"/>
		</g>
	</g>
</g>
</svg>
